ISO-10303-21;
HEADER;
/* Generated by software containing ST-Developer
 * from STEP Tools, Inc. (www.steptools.com) 
 */

FILE_DESCRIPTION(
/* description */ (''),
/* implementation_level */ '2;1');

FILE_NAME(
/* name */ 'SelfBalBot.step',
/* time_stamp */ '2026-10-08T14:09:00+05:30',
/* author */ (''),
/* organization */ (''),
/* preprocessor_version */ 'ST-DEVELOPER v20.2',
/* originating_system */ 'Autodesk Translation Framework v15.15.0.0',
/* authorisation */ '');

FILE_SCHEMA (('AUTOMOTIVE_DESIGN { 1 0 10303 214 3 1 1 }'));
ENDSEC;

DATA;
#10=MECHANICAL_DESIGN_GEOMETRIC_PRESENTATION_REPRESENTATION('',(#13),#707);
#11=SHAPE_REPRESENTATION_RELATIONSHIP('SRR','None',#714,#12);
#12=ADVANCED_BREP_SHAPE_REPRESENTATION('',(#14),#706);
#13=STYLED_ITEM('',(#723),#14);
#14=MANIFOLD_SOLID_BREP('Body1',#447);
#15=FACE_BOUND('',#57,.T.);
#16=FACE_BOUND('',#58,.T.);
#17=FACE_BOUND('',#60,.T.);
#18=FACE_BOUND('',#62,.T.);
#19=FACE_BOUND('',#63,.T.);
#20=FACE_BOUND('',#65,.T.);
#21=FACE_OUTER_BOUND('',#41,.T.);
#22=FACE_OUTER_BOUND('',#42,.T.);
#23=FACE_OUTER_BOUND('',#43,.T.);
#24=FACE_OUTER_BOUND('',#44,.T.);
#25=FACE_OUTER_BOUND('',#45,.T.);
#26=FACE_OUTER_BOUND('',#46,.T.);
#27=FACE_OUTER_BOUND('',#47,.T.);
#28=FACE_OUTER_BOUND('',#48,.T.);
#29=FACE_OUTER_BOUND('',#49,.T.);
#30=FACE_OUTER_BOUND('',#50,.T.);
#31=FACE_OUTER_BOUND('',#51,.T.);
#32=FACE_OUTER_BOUND('',#52,.T.);
#33=FACE_OUTER_BOUND('',#53,.T.);
#34=FACE_OUTER_BOUND('',#54,.T.);
#35=FACE_OUTER_BOUND('',#55,.T.);
#36=FACE_OUTER_BOUND('',#56,.T.);
#37=FACE_OUTER_BOUND('',#59,.T.);
#38=FACE_OUTER_BOUND('',#61,.T.);
#39=FACE_OUTER_BOUND('',#64,.T.);
#40=FACE_OUTER_BOUND('',#66,.T.);
#41=EDGE_LOOP('',(#287,#288,#289,#290));
#42=EDGE_LOOP('',(#291,#292,#293,#294));
#43=EDGE_LOOP('',(#295,#296,#297,#298));
#44=EDGE_LOOP('',(#299,#300,#301,#302));
#45=EDGE_LOOP('',(#303,#304,#305,#306));
#46=EDGE_LOOP('',(#307,#308,#309,#310));
#47=EDGE_LOOP('',(#311,#312,#313,#314));
#48=EDGE_LOOP('',(#315,#316,#317,#318,#319,#320,#321,#322,#323,#324,#325,
#326));
#49=EDGE_LOOP('',(#327,#328,#329,#330));
#50=EDGE_LOOP('',(#331,#332,#333,#334));
#51=EDGE_LOOP('',(#335,#336,#337,#338,#339,#340,#341,#342,#343,#344,#345,
#346));
#52=EDGE_LOOP('',(#347,#348,#349,#350));
#53=EDGE_LOOP('',(#351,#352,#353,#354));
#54=EDGE_LOOP('',(#355,#356,#357,#358));
#55=EDGE_LOOP('',(#359,#360,#361,#362));
#56=EDGE_LOOP('',(#363,#364,#365,#366));
#57=EDGE_LOOP('',(#367,#368,#369,#370));
#58=EDGE_LOOP('',(#371,#372,#373,#374));
#59=EDGE_LOOP('',(#375,#376,#377,#378));
#60=EDGE_LOOP('',(#379,#380,#381,#382));
#61=EDGE_LOOP('',(#383,#384,#385,#386));
#62=EDGE_LOOP('',(#387,#388,#389,#390));
#63=EDGE_LOOP('',(#391,#392,#393,#394));
#64=EDGE_LOOP('',(#395,#396,#397,#398));
#65=EDGE_LOOP('',(#399,#400,#401,#402));
#66=EDGE_LOOP('',(#403,#404,#405,#406));
#67=LINE('',#587,#127);
#68=LINE('',#589,#128);
#69=LINE('',#591,#129);
#70=LINE('',#592,#130);
#71=LINE('',#596,#131);
#72=LINE('',#598,#132);
#73=LINE('',#600,#133);
#74=LINE('',#601,#134);
#75=LINE('',#605,#135);
#76=LINE('',#607,#136);
#77=LINE('',#609,#137);
#78=LINE('',#610,#138);
#79=LINE('',#614,#139);
#80=LINE('',#616,#140);
#81=LINE('',#618,#141);
#82=LINE('',#619,#142);
#83=LINE('',#622,#143);
#84=LINE('',#624,#144);
#85=LINE('',#625,#145);
#86=LINE('',#628,#146);
#87=LINE('',#630,#147);
#88=LINE('',#631,#148);
#89=LINE('',#634,#149);
#90=LINE('',#636,#150);
#91=LINE('',#637,#151);
#92=LINE('',#640,#152);
#93=LINE('',#641,#153);
#94=LINE('',#642,#154);
#95=LINE('',#643,#155);
#96=LINE('',#644,#156);
#97=LINE('',#647,#157);
#98=LINE('',#648,#158);
#99=LINE('',#652,#159);
#100=LINE('',#654,#160);
#101=LINE('',#656,#161);
#102=LINE('',#657,#162);
#103=LINE('',#659,#163);
#104=LINE('',#660,#164);
#105=LINE('',#661,#165);
#106=LINE('',#662,#166);
#107=LINE('',#666,#167);
#108=LINE('',#668,#168);
#109=LINE('',#670,#169);
#110=LINE('',#671,#170);
#111=LINE('',#674,#171);
#112=LINE('',#676,#172);
#113=LINE('',#677,#173);
#114=LINE('',#680,#174);
#115=LINE('',#682,#175);
#116=LINE('',#683,#176);
#117=LINE('',#685,#177);
#118=LINE('',#686,#178);
#119=LINE('',#689,#179);
#120=LINE('',#691,#180);
#121=LINE('',#692,#181);
#122=LINE('',#695,#182);
#123=LINE('',#696,#183);
#124=LINE('',#699,#184);
#125=LINE('',#700,#185);
#126=LINE('',#702,#186);
#127=VECTOR('',#485,10.);
#128=VECTOR('',#486,10.);
#129=VECTOR('',#487,10.);
#130=VECTOR('',#488,10.);
#131=VECTOR('',#491,10.);
#132=VECTOR('',#492,10.);
#133=VECTOR('',#493,10.);
#134=VECTOR('',#494,10.);
#135=VECTOR('',#497,10.);
#136=VECTOR('',#498,10.);
#137=VECTOR('',#499,10.);
#138=VECTOR('',#500,10.);
#139=VECTOR('',#503,10.);
#140=VECTOR('',#504,10.);
#141=VECTOR('',#505,10.);
#142=VECTOR('',#506,10.);
#143=VECTOR('',#509,10.);
#144=VECTOR('',#510,10.);
#145=VECTOR('',#511,10.);
#146=VECTOR('',#514,10.);
#147=VECTOR('',#515,10.);
#148=VECTOR('',#516,10.);
#149=VECTOR('',#519,10.);
#150=VECTOR('',#520,10.);
#151=VECTOR('',#521,10.);
#152=VECTOR('',#524,10.);
#153=VECTOR('',#525,10.);
#154=VECTOR('',#526,10.);
#155=VECTOR('',#527,10.);
#156=VECTOR('',#528,10.);
#157=VECTOR('',#531,10.);
#158=VECTOR('',#532,10.);
#159=VECTOR('',#535,10.);
#160=VECTOR('',#536,10.);
#161=VECTOR('',#537,10.);
#162=VECTOR('',#538,10.);
#163=VECTOR('',#541,10.);
#164=VECTOR('',#542,10.);
#165=VECTOR('',#543,10.);
#166=VECTOR('',#544,10.);
#167=VECTOR('',#547,10.);
#168=VECTOR('',#548,10.);
#169=VECTOR('',#549,10.);
#170=VECTOR('',#550,10.);
#171=VECTOR('',#553,10.);
#172=VECTOR('',#554,10.);
#173=VECTOR('',#555,10.);
#174=VECTOR('',#558,10.);
#175=VECTOR('',#559,10.);
#176=VECTOR('',#560,10.);
#177=VECTOR('',#563,10.);
#178=VECTOR('',#564,10.);
#179=VECTOR('',#567,10.);
#180=VECTOR('',#568,10.);
#181=VECTOR('',#569,10.);
#182=VECTOR('',#572,10.);
#183=VECTOR('',#573,10.);
#184=VECTOR('',#576,10.);
#185=VECTOR('',#577,10.);
#186=VECTOR('',#580,10.);
#187=VERTEX_POINT('',#585);
#188=VERTEX_POINT('',#586);
#189=VERTEX_POINT('',#588);
#190=VERTEX_POINT('',#590);
#191=VERTEX_POINT('',#594);
#192=VERTEX_POINT('',#595);
#193=VERTEX_POINT('',#597);
#194=VERTEX_POINT('',#599);
#195=VERTEX_POINT('',#603);
#196=VERTEX_POINT('',#604);
#197=VERTEX_POINT('',#606);
#198=VERTEX_POINT('',#608);
#199=VERTEX_POINT('',#612);
#200=VERTEX_POINT('',#613);
#201=VERTEX_POINT('',#615);
#202=VERTEX_POINT('',#617);
#203=VERTEX_POINT('',#621);
#204=VERTEX_POINT('',#623);
#205=VERTEX_POINT('',#627);
#206=VERTEX_POINT('',#629);
#207=VERTEX_POINT('',#633);
#208=VERTEX_POINT('',#635);
#209=VERTEX_POINT('',#639);
#210=VERTEX_POINT('',#646);
#211=VERTEX_POINT('',#650);
#212=VERTEX_POINT('',#651);
#213=VERTEX_POINT('',#653);
#214=VERTEX_POINT('',#655);
#215=VERTEX_POINT('',#664);
#216=VERTEX_POINT('',#665);
#217=VERTEX_POINT('',#667);
#218=VERTEX_POINT('',#669);
#219=VERTEX_POINT('',#673);
#220=VERTEX_POINT('',#675);
#221=VERTEX_POINT('',#679);
#222=VERTEX_POINT('',#681);
#223=VERTEX_POINT('',#688);
#224=VERTEX_POINT('',#690);
#225=VERTEX_POINT('',#694);
#226=VERTEX_POINT('',#698);
#227=EDGE_CURVE('',#187,#188,#67,.T.);
#228=EDGE_CURVE('',#189,#187,#68,.T.);
#229=EDGE_CURVE('',#190,#189,#69,.T.);
#230=EDGE_CURVE('',#190,#188,#70,.T.);
#231=EDGE_CURVE('',#191,#192,#71,.T.);
#232=EDGE_CURVE('',#193,#191,#72,.T.);
#233=EDGE_CURVE('',#194,#193,#73,.T.);
#234=EDGE_CURVE('',#194,#192,#74,.T.);
#235=EDGE_CURVE('',#195,#196,#75,.T.);
#236=EDGE_CURVE('',#197,#195,#76,.T.);
#237=EDGE_CURVE('',#198,#197,#77,.T.);
#238=EDGE_CURVE('',#198,#196,#78,.T.);
#239=EDGE_CURVE('',#199,#200,#79,.T.);
#240=EDGE_CURVE('',#201,#199,#80,.T.);
#241=EDGE_CURVE('',#202,#201,#81,.T.);
#242=EDGE_CURVE('',#202,#200,#82,.T.);
#243=EDGE_CURVE('',#203,#201,#83,.T.);
#244=EDGE_CURVE('',#203,#204,#84,.T.);
#245=EDGE_CURVE('',#204,#202,#85,.T.);
#246=EDGE_CURVE('',#193,#205,#86,.T.);
#247=EDGE_CURVE('',#206,#205,#87,.T.);
#248=EDGE_CURVE('',#194,#206,#88,.T.);
#249=EDGE_CURVE('',#196,#207,#89,.T.);
#250=EDGE_CURVE('',#208,#207,#90,.T.);
#251=EDGE_CURVE('',#195,#208,#91,.T.);
#252=EDGE_CURVE('',#209,#187,#92,.T.);
#253=EDGE_CURVE('',#209,#205,#93,.T.);
#254=EDGE_CURVE('',#200,#191,#94,.T.);
#255=EDGE_CURVE('',#207,#204,#95,.T.);
#256=EDGE_CURVE('',#189,#198,#96,.T.);
#257=EDGE_CURVE('',#210,#188,#97,.T.);
#258=EDGE_CURVE('',#210,#209,#98,.T.);
#259=EDGE_CURVE('',#211,#212,#99,.T.);
#260=EDGE_CURVE('',#212,#213,#100,.T.);
#261=EDGE_CURVE('',#213,#214,#101,.T.);
#262=EDGE_CURVE('',#214,#211,#102,.T.);
#263=EDGE_CURVE('',#206,#210,#103,.T.);
#264=EDGE_CURVE('',#197,#190,#104,.T.);
#265=EDGE_CURVE('',#208,#203,#105,.T.);
#266=EDGE_CURVE('',#192,#199,#106,.T.);
#267=EDGE_CURVE('',#215,#216,#107,.T.);
#268=EDGE_CURVE('',#215,#217,#108,.T.);
#269=EDGE_CURVE('',#218,#217,#109,.T.);
#270=EDGE_CURVE('',#216,#218,#110,.T.);
#271=EDGE_CURVE('',#219,#216,#111,.T.);
#272=EDGE_CURVE('',#220,#219,#112,.T.);
#273=EDGE_CURVE('',#220,#215,#113,.T.);
#274=EDGE_CURVE('',#221,#219,#114,.T.);
#275=EDGE_CURVE('',#221,#222,#115,.T.);
#276=EDGE_CURVE('',#220,#222,#116,.T.);
#277=EDGE_CURVE('',#222,#217,#117,.T.);
#278=EDGE_CURVE('',#221,#218,#118,.T.);
#279=EDGE_CURVE('',#223,#213,#119,.T.);
#280=EDGE_CURVE('',#224,#223,#120,.T.);
#281=EDGE_CURVE('',#224,#214,#121,.T.);
#282=EDGE_CURVE('',#225,#224,#122,.T.);
#283=EDGE_CURVE('',#225,#211,#123,.T.);
#284=EDGE_CURVE('',#226,#225,#124,.T.);
#285=EDGE_CURVE('',#212,#226,#125,.T.);
#286=EDGE_CURVE('',#223,#226,#126,.T.);
#287=ORIENTED_EDGE('',*,*,#227,.F.);
#288=ORIENTED_EDGE('',*,*,#228,.F.);
#289=ORIENTED_EDGE('',*,*,#229,.F.);
#290=ORIENTED_EDGE('',*,*,#230,.T.);
#291=ORIENTED_EDGE('',*,*,#231,.F.);
#292=ORIENTED_EDGE('',*,*,#232,.F.);
#293=ORIENTED_EDGE('',*,*,#233,.F.);
#294=ORIENTED_EDGE('',*,*,#234,.T.);
#295=ORIENTED_EDGE('',*,*,#235,.F.);
#296=ORIENTED_EDGE('',*,*,#236,.F.);
#297=ORIENTED_EDGE('',*,*,#237,.F.);
#298=ORIENTED_EDGE('',*,*,#238,.T.);
#299=ORIENTED_EDGE('',*,*,#239,.F.);
#300=ORIENTED_EDGE('',*,*,#240,.F.);
#301=ORIENTED_EDGE('',*,*,#241,.F.);
#302=ORIENTED_EDGE('',*,*,#242,.T.);
#303=ORIENTED_EDGE('',*,*,#241,.T.);
#304=ORIENTED_EDGE('',*,*,#243,.F.);
#305=ORIENTED_EDGE('',*,*,#244,.T.);
#306=ORIENTED_EDGE('',*,*,#245,.T.);
#307=ORIENTED_EDGE('',*,*,#233,.T.);
#308=ORIENTED_EDGE('',*,*,#246,.T.);
#309=ORIENTED_EDGE('',*,*,#247,.F.);
#310=ORIENTED_EDGE('',*,*,#248,.F.);
#311=ORIENTED_EDGE('',*,*,#235,.T.);
#312=ORIENTED_EDGE('',*,*,#249,.T.);
#313=ORIENTED_EDGE('',*,*,#250,.F.);
#314=ORIENTED_EDGE('',*,*,#251,.F.);
#315=ORIENTED_EDGE('',*,*,#252,.F.);
#316=ORIENTED_EDGE('',*,*,#253,.T.);
#317=ORIENTED_EDGE('',*,*,#246,.F.);
#318=ORIENTED_EDGE('',*,*,#232,.T.);
#319=ORIENTED_EDGE('',*,*,#254,.F.);
#320=ORIENTED_EDGE('',*,*,#242,.F.);
#321=ORIENTED_EDGE('',*,*,#245,.F.);
#322=ORIENTED_EDGE('',*,*,#255,.F.);
#323=ORIENTED_EDGE('',*,*,#249,.F.);
#324=ORIENTED_EDGE('',*,*,#238,.F.);
#325=ORIENTED_EDGE('',*,*,#256,.F.);
#326=ORIENTED_EDGE('',*,*,#228,.T.);
#327=ORIENTED_EDGE('',*,*,#227,.T.);
#328=ORIENTED_EDGE('',*,*,#257,.F.);
#329=ORIENTED_EDGE('',*,*,#258,.T.);
#330=ORIENTED_EDGE('',*,*,#252,.T.);
#331=ORIENTED_EDGE('',*,*,#259,.T.);
#332=ORIENTED_EDGE('',*,*,#260,.T.);
#333=ORIENTED_EDGE('',*,*,#261,.T.);
#334=ORIENTED_EDGE('',*,*,#262,.T.);
#335=ORIENTED_EDGE('',*,*,#248,.T.);
#336=ORIENTED_EDGE('',*,*,#263,.T.);
#337=ORIENTED_EDGE('',*,*,#257,.T.);
#338=ORIENTED_EDGE('',*,*,#230,.F.);
#339=ORIENTED_EDGE('',*,*,#264,.F.);
#340=ORIENTED_EDGE('',*,*,#236,.T.);
#341=ORIENTED_EDGE('',*,*,#251,.T.);
#342=ORIENTED_EDGE('',*,*,#265,.T.);
#343=ORIENTED_EDGE('',*,*,#243,.T.);
#344=ORIENTED_EDGE('',*,*,#240,.T.);
#345=ORIENTED_EDGE('',*,*,#266,.F.);
#346=ORIENTED_EDGE('',*,*,#234,.F.);
#347=ORIENTED_EDGE('',*,*,#267,.F.);
#348=ORIENTED_EDGE('',*,*,#268,.T.);
#349=ORIENTED_EDGE('',*,*,#269,.F.);
#350=ORIENTED_EDGE('',*,*,#270,.F.);
#351=ORIENTED_EDGE('',*,*,#267,.T.);
#352=ORIENTED_EDGE('',*,*,#271,.F.);
#353=ORIENTED_EDGE('',*,*,#272,.F.);
#354=ORIENTED_EDGE('',*,*,#273,.T.);
#355=ORIENTED_EDGE('',*,*,#272,.T.);
#356=ORIENTED_EDGE('',*,*,#274,.F.);
#357=ORIENTED_EDGE('',*,*,#275,.T.);
#358=ORIENTED_EDGE('',*,*,#276,.F.);
#359=ORIENTED_EDGE('',*,*,#269,.T.);
#360=ORIENTED_EDGE('',*,*,#277,.F.);
#361=ORIENTED_EDGE('',*,*,#275,.F.);
#362=ORIENTED_EDGE('',*,*,#278,.T.);
#363=ORIENTED_EDGE('',*,*,#279,.F.);
#364=ORIENTED_EDGE('',*,*,#280,.F.);
#365=ORIENTED_EDGE('',*,*,#281,.T.);
#366=ORIENTED_EDGE('',*,*,#261,.F.);
#367=ORIENTED_EDGE('',*,*,#266,.T.);
#368=ORIENTED_EDGE('',*,*,#239,.T.);
#369=ORIENTED_EDGE('',*,*,#254,.T.);
#370=ORIENTED_EDGE('',*,*,#231,.T.);
#371=ORIENTED_EDGE('',*,*,#273,.F.);
#372=ORIENTED_EDGE('',*,*,#276,.T.);
#373=ORIENTED_EDGE('',*,*,#277,.T.);
#374=ORIENTED_EDGE('',*,*,#268,.F.);
#375=ORIENTED_EDGE('',*,*,#262,.F.);
#376=ORIENTED_EDGE('',*,*,#281,.F.);
#377=ORIENTED_EDGE('',*,*,#282,.F.);
#378=ORIENTED_EDGE('',*,*,#283,.T.);
#379=ORIENTED_EDGE('',*,*,#258,.F.);
#380=ORIENTED_EDGE('',*,*,#263,.F.);
#381=ORIENTED_EDGE('',*,*,#247,.T.);
#382=ORIENTED_EDGE('',*,*,#253,.F.);
#383=ORIENTED_EDGE('',*,*,#283,.F.);
#384=ORIENTED_EDGE('',*,*,#284,.F.);
#385=ORIENTED_EDGE('',*,*,#285,.F.);
#386=ORIENTED_EDGE('',*,*,#259,.F.);
#387=ORIENTED_EDGE('',*,*,#264,.T.);
#388=ORIENTED_EDGE('',*,*,#229,.T.);
#389=ORIENTED_EDGE('',*,*,#256,.T.);
#390=ORIENTED_EDGE('',*,*,#237,.T.);
#391=ORIENTED_EDGE('',*,*,#270,.T.);
#392=ORIENTED_EDGE('',*,*,#278,.F.);
#393=ORIENTED_EDGE('',*,*,#274,.T.);
#394=ORIENTED_EDGE('',*,*,#271,.T.);
#395=ORIENTED_EDGE('',*,*,#260,.F.);
#396=ORIENTED_EDGE('',*,*,#285,.T.);
#397=ORIENTED_EDGE('',*,*,#286,.F.);
#398=ORIENTED_EDGE('',*,*,#279,.T.);
#399=ORIENTED_EDGE('',*,*,#255,.T.);
#400=ORIENTED_EDGE('',*,*,#244,.F.);
#401=ORIENTED_EDGE('',*,*,#265,.F.);
#402=ORIENTED_EDGE('',*,*,#250,.T.);
#403=ORIENTED_EDGE('',*,*,#286,.T.);
#404=ORIENTED_EDGE('',*,*,#284,.T.);
#405=ORIENTED_EDGE('',*,*,#282,.T.);
#406=ORIENTED_EDGE('',*,*,#280,.T.);
#407=PLANE('',#461);
#408=PLANE('',#462);
#409=PLANE('',#463);
#410=PLANE('',#464);
#411=PLANE('',#465);
#412=PLANE('',#466);
#413=PLANE('',#467);
#414=PLANE('',#468);
#415=PLANE('',#469);
#416=PLANE('',#470);
#417=PLANE('',#471);
#418=PLANE('',#472);
#419=PLANE('',#473);
#420=PLANE('',#474);
#421=PLANE('',#475);
#422=PLANE('',#476);
#423=PLANE('',#477);
#424=PLANE('',#478);
#425=PLANE('',#479);
#426=PLANE('',#480);
#427=ADVANCED_FACE('',(#21),#407,.F.);
#428=ADVANCED_FACE('',(#22),#408,.F.);
#429=ADVANCED_FACE('',(#23),#409,.F.);
#430=ADVANCED_FACE('',(#24),#410,.F.);
#431=ADVANCED_FACE('',(#25),#411,.T.);
#432=ADVANCED_FACE('',(#26),#412,.T.);
#433=ADVANCED_FACE('',(#27),#413,.T.);
#434=ADVANCED_FACE('',(#28),#414,.T.);
#435=ADVANCED_FACE('',(#29),#415,.T.);
#436=ADVANCED_FACE('',(#30),#416,.T.);
#437=ADVANCED_FACE('',(#31),#417,.T.);
#438=ADVANCED_FACE('',(#32),#418,.T.);
#439=ADVANCED_FACE('',(#33),#419,.T.);
#440=ADVANCED_FACE('',(#34),#420,.T.);
#441=ADVANCED_FACE('',(#35),#421,.T.);
#442=ADVANCED_FACE('',(#36,#15,#16),#422,.T.);
#443=ADVANCED_FACE('',(#37,#17),#423,.T.);
#444=ADVANCED_FACE('',(#38,#18,#19),#424,.T.);
#445=ADVANCED_FACE('',(#39,#20),#425,.T.);
#446=ADVANCED_FACE('',(#40),#426,.T.);
#447=CLOSED_SHELL('',(#427,#428,#429,#430,#431,#432,#433,#434,#435,#436,
#437,#438,#439,#440,#441,#442,#443,#444,#445,#446));
#448=DERIVED_UNIT_ELEMENT(#450,1.);
#449=DERIVED_UNIT_ELEMENT(#709,-3.);
#450=(
MASS_UNIT()
NAMED_UNIT(*)
SI_UNIT(.KILO.,.GRAM.)
);
#451=DERIVED_UNIT((#448,#449));
#452=MEASURE_REPRESENTATION_ITEM('density measure',
POSITIVE_RATIO_MEASURE(7850.),#451);
#453=PROPERTY_DEFINITION_REPRESENTATION(#458,#455);
#454=PROPERTY_DEFINITION_REPRESENTATION(#459,#456);
#455=REPRESENTATION('material name',(#457),#706);
#456=REPRESENTATION('density',(#452),#706);
#457=DESCRIPTIVE_REPRESENTATION_ITEM('Steel','Steel');
#458=PROPERTY_DEFINITION('material property','material name',#716);
#459=PROPERTY_DEFINITION('material property','density of part',#716);
#460=AXIS2_PLACEMENT_3D('',#583,#481,#482);
#461=AXIS2_PLACEMENT_3D('',#584,#483,#484);
#462=AXIS2_PLACEMENT_3D('',#593,#489,#490);
#463=AXIS2_PLACEMENT_3D('',#602,#495,#496);
#464=AXIS2_PLACEMENT_3D('',#611,#501,#502);
#465=AXIS2_PLACEMENT_3D('',#620,#507,#508);
#466=AXIS2_PLACEMENT_3D('',#626,#512,#513);
#467=AXIS2_PLACEMENT_3D('',#632,#517,#518);
#468=AXIS2_PLACEMENT_3D('',#638,#522,#523);
#469=AXIS2_PLACEMENT_3D('',#645,#529,#530);
#470=AXIS2_PLACEMENT_3D('',#649,#533,#534);
#471=AXIS2_PLACEMENT_3D('',#658,#539,#540);
#472=AXIS2_PLACEMENT_3D('',#663,#545,#546);
#473=AXIS2_PLACEMENT_3D('',#672,#551,#552);
#474=AXIS2_PLACEMENT_3D('',#678,#556,#557);
#475=AXIS2_PLACEMENT_3D('',#684,#561,#562);
#476=AXIS2_PLACEMENT_3D('',#687,#565,#566);
#477=AXIS2_PLACEMENT_3D('',#693,#570,#571);
#478=AXIS2_PLACEMENT_3D('',#697,#574,#575);
#479=AXIS2_PLACEMENT_3D('',#701,#578,#579);
#480=AXIS2_PLACEMENT_3D('',#703,#581,#582);
#481=DIRECTION('axis',(0.,0.,1.));
#482=DIRECTION('refdir',(1.,0.,0.));
#483=DIRECTION('center_axis',(0.,0.,-1.));
#484=DIRECTION('ref_axis',(0.,1.,0.));
#485=DIRECTION('',(0.,-1.,0.));
#486=DIRECTION('',(1.,0.,0.));
#487=DIRECTION('',(0.,1.,0.));
#488=DIRECTION('',(1.,0.,0.));
#489=DIRECTION('center_axis',(0.,0.,-1.));
#490=DIRECTION('ref_axis',(0.,1.,0.));
#491=DIRECTION('',(0.,-1.,0.));
#492=DIRECTION('',(1.,0.,0.));
#493=DIRECTION('',(0.,1.,0.));
#494=DIRECTION('',(1.,0.,0.));
#495=DIRECTION('center_axis',(0.,0.,1.));
#496=DIRECTION('ref_axis',(0.,-1.,0.));
#497=DIRECTION('',(0.,1.,0.));
#498=DIRECTION('',(1.,0.,0.));
#499=DIRECTION('',(0.,-1.,0.));
#500=DIRECTION('',(1.,0.,0.));
#501=DIRECTION('center_axis',(0.,0.,1.));
#502=DIRECTION('ref_axis',(0.,-1.,0.));
#503=DIRECTION('',(0.,1.,0.));
#504=DIRECTION('',(1.,0.,0.));
#505=DIRECTION('',(0.,-1.,0.));
#506=DIRECTION('',(1.,0.,0.));
#507=DIRECTION('center_axis',(-1.,0.,0.));
#508=DIRECTION('ref_axis',(0.,0.,1.));
#509=DIRECTION('',(0.,0.,-1.));
#510=DIRECTION('',(0.,1.,0.));
#511=DIRECTION('',(0.,0.,-1.));
#512=DIRECTION('center_axis',(-1.,0.,0.));
#513=DIRECTION('ref_axis',(0.,0.,1.));
#514=DIRECTION('',(0.,0.,-1.));
#515=DIRECTION('',(0.,1.,0.));
#516=DIRECTION('',(0.,0.,-1.));
#517=DIRECTION('center_axis',(1.,0.,0.));
#518=DIRECTION('ref_axis',(0.,0.,-1.));
#519=DIRECTION('',(0.,0.,1.));
#520=DIRECTION('',(0.,1.,0.));
#521=DIRECTION('',(0.,0.,1.));
#522=DIRECTION('center_axis',(0.,-1.,0.));
#523=DIRECTION('ref_axis',(0.,0.,-1.));
#524=DIRECTION('',(0.,0.,1.));
#525=DIRECTION('',(1.,0.,0.));
#526=DIRECTION('',(0.,0.,-1.));
#527=DIRECTION('',(1.,0.,0.));
#528=DIRECTION('',(0.,0.,1.));
#529=DIRECTION('center_axis',(1.,0.,0.));
#530=DIRECTION('ref_axis',(0.,0.,-1.));
#531=DIRECTION('',(0.,0.,1.));
#532=DIRECTION('',(0.,1.,0.));
#533=DIRECTION('center_axis',(0.,1.,0.));
#534=DIRECTION('ref_axis',(0.,0.,1.));
#535=DIRECTION('',(0.,0.,1.));
#536=DIRECTION('',(1.,0.,0.));
#537=DIRECTION('',(0.,0.,-1.));
#538=DIRECTION('',(-1.,0.,0.));
#539=DIRECTION('center_axis',(0.,1.,0.));
#540=DIRECTION('ref_axis',(0.,0.,1.));
#541=DIRECTION('',(-1.,0.,0.));
#542=DIRECTION('',(0.,0.,-1.));
#543=DIRECTION('',(1.,0.,0.));
#544=DIRECTION('',(0.,0.,1.));
#545=DIRECTION('center_axis',(0.,-1.,0.));
#546=DIRECTION('ref_axis',(1.,0.,0.));
#547=DIRECTION('',(-1.,0.,0.));
#548=DIRECTION('',(0.,0.,1.));
#549=DIRECTION('',(1.,0.,0.));
#550=DIRECTION('',(0.,0.,1.));
#551=DIRECTION('center_axis',(0.,0.,1.));
#552=DIRECTION('ref_axis',(1.,0.,0.));
#553=DIRECTION('',(0.,1.,0.));
#554=DIRECTION('',(-1.,0.,0.));
#555=DIRECTION('',(0.,1.,0.));
#556=DIRECTION('center_axis',(0.,1.,0.));
#557=DIRECTION('ref_axis',(1.,0.,0.));
#558=DIRECTION('',(0.,0.,-1.));
#559=DIRECTION('',(1.,0.,0.));
#560=DIRECTION('',(0.,0.,1.));
#561=DIRECTION('center_axis',(0.,0.,-1.));
#562=DIRECTION('ref_axis',(-1.,0.,0.));
#563=DIRECTION('',(0.,1.,0.));
#564=DIRECTION('',(0.,1.,0.));
#565=DIRECTION('center_axis',(1.,0.,0.));
#566=DIRECTION('ref_axis',(0.,0.,1.));
#567=DIRECTION('',(0.,1.,0.));
#568=DIRECTION('',(0.,0.,1.));
#569=DIRECTION('',(0.,1.,0.));
#570=DIRECTION('center_axis',(0.,0.,-1.));
#571=DIRECTION('ref_axis',(1.,0.,0.));
#572=DIRECTION('',(1.,0.,0.));
#573=DIRECTION('',(0.,1.,0.));
#574=DIRECTION('center_axis',(-1.,0.,0.));
#575=DIRECTION('ref_axis',(0.,0.,-1.));
#576=DIRECTION('',(0.,0.,-1.));
#577=DIRECTION('',(0.,-1.,0.));
#578=DIRECTION('center_axis',(0.,0.,1.));
#579=DIRECTION('ref_axis',(-1.,0.,0.));
#580=DIRECTION('',(-1.,0.,0.));
#581=DIRECTION('center_axis',(0.,-1.,0.));
#582=DIRECTION('ref_axis',(0.,0.,-1.));
#583=CARTESIAN_POINT('',(0.,0.,0.));
#584=CARTESIAN_POINT('Origin',(-25.000000372529,50.,-25.));
#585=CARTESIAN_POINT('',(-22.,97.,-25.));
#586=CARTESIAN_POINT('',(-22.,50.,-25.));
#587=CARTESIAN_POINT('',(-22.,50.,-25.));
#588=CARTESIAN_POINT('',(-25.000000372529,97.,-25.));
#589=CARTESIAN_POINT('',(-25.000000372529,97.,-25.));
#590=CARTESIAN_POINT('',(-25.000000372529,50.,-25.));
#591=CARTESIAN_POINT('',(-25.000000372529,25.,-25.));
#592=CARTESIAN_POINT('',(-25.000000372529,50.,-25.));
#593=CARTESIAN_POINT('Origin',(-25.000000372529,50.,-25.));
#594=CARTESIAN_POINT('',(44.999999627471,97.,-25.));
#595=CARTESIAN_POINT('',(44.999999627471,50.,-25.));
#596=CARTESIAN_POINT('',(44.999999627471,25.,-25.));
#597=CARTESIAN_POINT('',(42.,97.,-25.));
#598=CARTESIAN_POINT('',(-25.000000372529,97.,-25.));
#599=CARTESIAN_POINT('',(42.,50.,-25.));
#600=CARTESIAN_POINT('',(42.,50.,-25.));
#601=CARTESIAN_POINT('',(-25.000000372529,50.,-25.));
#602=CARTESIAN_POINT('Origin',(-25.000000372529,97.,35.));
#603=CARTESIAN_POINT('',(-22.,50.,35.));
#604=CARTESIAN_POINT('',(-22.,97.,35.));
#605=CARTESIAN_POINT('',(-22.,73.5,35.));
#606=CARTESIAN_POINT('',(-25.000000372529,50.,35.));
#607=CARTESIAN_POINT('',(-25.000000372529,50.,35.));
#608=CARTESIAN_POINT('',(-25.000000372529,97.,35.));
#609=CARTESIAN_POINT('',(-25.000000372529,48.5,35.));
#610=CARTESIAN_POINT('',(-25.000000372529,97.,35.));
#611=CARTESIAN_POINT('Origin',(-25.000000372529,97.,35.));
#612=CARTESIAN_POINT('',(44.999999627471,50.,35.));
#613=CARTESIAN_POINT('',(44.999999627471,97.,35.));
#614=CARTESIAN_POINT('',(44.999999627471,48.5,35.));
#615=CARTESIAN_POINT('',(42.,50.,35.));
#616=CARTESIAN_POINT('',(-25.000000372529,50.,35.));
#617=CARTESIAN_POINT('',(42.,97.,35.));
#618=CARTESIAN_POINT('',(42.,73.5,35.));
#619=CARTESIAN_POINT('',(-25.000000372529,97.,35.));
#620=CARTESIAN_POINT('Origin',(42.,50.,-30.));
#621=CARTESIAN_POINT('',(42.,50.,40.));
#622=CARTESIAN_POINT('',(42.,50.,-28.75));
#623=CARTESIAN_POINT('',(42.,97.,39.9999995529652));
#624=CARTESIAN_POINT('',(42.,50.,40.));
#625=CARTESIAN_POINT('',(42.,97.,4.99999977648258));
#626=CARTESIAN_POINT('Origin',(42.,50.,-30.));
#627=CARTESIAN_POINT('',(42.,97.,-30.));
#628=CARTESIAN_POINT('',(42.,97.,4.99999977648258));
#629=CARTESIAN_POINT('',(42.,50.,-30.));
#630=CARTESIAN_POINT('',(42.,50.,-30.));
#631=CARTESIAN_POINT('',(42.,50.,-28.75));
#632=CARTESIAN_POINT('Origin',(-22.,50.,39.9999995529652));
#633=CARTESIAN_POINT('',(-22.,97.,39.9999995529652));
#634=CARTESIAN_POINT('',(-22.,97.,39.9999995529652));
#635=CARTESIAN_POINT('',(-22.,50.,39.9999995529652));
#636=CARTESIAN_POINT('',(-22.,50.,39.9999995529652));
#637=CARTESIAN_POINT('',(-22.,50.,6.24999977648258));
#638=CARTESIAN_POINT('Origin',(-22.,97.,39.9999995529652));
#639=CARTESIAN_POINT('',(-22.,97.,-30.));
#640=CARTESIAN_POINT('',(-22.,97.,39.9999995529652));
#641=CARTESIAN_POINT('',(-22.,97.,-30.));
#642=CARTESIAN_POINT('',(44.999999627471,97.,-27.5000002235174));
#643=CARTESIAN_POINT('',(-22.,97.,39.9999995529652));
#644=CARTESIAN_POINT('',(-25.000000372529,97.,7.49999977648258));
#645=CARTESIAN_POINT('Origin',(-22.,50.,39.9999995529652));
#646=CARTESIAN_POINT('',(-22.,50.,-30.));
#647=CARTESIAN_POINT('',(-22.,50.,6.24999977648258));
#648=CARTESIAN_POINT('',(-22.,50.,-30.));
#649=CARTESIAN_POINT('Origin',(-23.5,100.,4.99999977648258));
#650=CARTESIAN_POINT('',(-25.,100.,-30.));
#651=CARTESIAN_POINT('',(-25.,100.,39.9999995529652));
#652=CARTESIAN_POINT('',(-25.,100.,-30.));
#653=CARTESIAN_POINT('',(45.,100.,40.));
#654=CARTESIAN_POINT('',(-25.,100.,39.9999995529652));
#655=CARTESIAN_POINT('',(45.,100.,-30.));
#656=CARTESIAN_POINT('',(45.,100.,-30.));
#657=CARTESIAN_POINT('',(42.,100.,-30.));
#658=CARTESIAN_POINT('Origin',(10.,50.,-27.5));
#659=CARTESIAN_POINT('',(-25.,50.,-30.));
#660=CARTESIAN_POINT('',(-25.000000372529,50.,37.4999997764826));
#661=CARTESIAN_POINT('',(44.999999627471,50.,39.9999995529652));
#662=CARTESIAN_POINT('',(44.999999627471,50.,2.49999977648258));
#663=CARTESIAN_POINT('Origin',(-25.,47.0000007003546,-25.));
#664=CARTESIAN_POINT('',(45.0000006705523,47.0000007003546,-25.));
#665=CARTESIAN_POINT('',(-25.,47.0000007003546,-25.));
#666=CARTESIAN_POINT('',(-25.,47.0000007003546,-25.));
#667=CARTESIAN_POINT('',(45.0000006705523,47.0000007003546,35.));
#668=CARTESIAN_POINT('',(45.0000006705523,47.0000007003546,-25.));
#669=CARTESIAN_POINT('',(-25.,47.0000007003546,35.));
#670=CARTESIAN_POINT('',(9.99999981373549,47.0000007003546,35.));
#671=CARTESIAN_POINT('',(-25.,47.0000007003546,-25.));
#672=CARTESIAN_POINT('Origin',(-25.,0.,-25.));
#673=CARTESIAN_POINT('',(-25.,0.,-25.));
#674=CARTESIAN_POINT('',(-25.,0.,-25.));
#675=CARTESIAN_POINT('',(45.,0.,-25.));
#676=CARTESIAN_POINT('',(-7.50000018626451,0.,-25.));
#677=CARTESIAN_POINT('',(45.,0.,-25.));
#678=CARTESIAN_POINT('Origin',(9.99999962747097,0.,4.99999955296516));
#679=CARTESIAN_POINT('',(-25.,0.,35.));
#680=CARTESIAN_POINT('',(-25.000000372529,0.,39.9999995529652));
#681=CARTESIAN_POINT('',(44.999999627471,0.,35.));
#682=CARTESIAN_POINT('',(27.499999627471,0.,35.));
#683=CARTESIAN_POINT('',(44.999999627471,0.,-30.0000004470348));
#684=CARTESIAN_POINT('Origin',(44.999999627471,0.,35.));
#685=CARTESIAN_POINT('',(44.999999627471,0.,35.));
#686=CARTESIAN_POINT('',(-25.,0.,35.));
#687=CARTESIAN_POINT('Origin',(44.999999627471,0.,-30.0000004470348));
#688=CARTESIAN_POINT('',(44.999999627471,-3.,39.9999995529652));
#689=CARTESIAN_POINT('',(44.999999627471,0.,39.9999995529652));
#690=CARTESIAN_POINT('',(44.999999627471,-3.,-30.0000004470348));
#691=CARTESIAN_POINT('',(44.999999627471,-3.,-30.0000004470348));
#692=CARTESIAN_POINT('',(45.,0.,-30.));
#693=CARTESIAN_POINT('Origin',(-25.000000372529,0.,-30.0000004470348));
#694=CARTESIAN_POINT('',(-25.000000372529,-3.,-30.0000004470348));
#695=CARTESIAN_POINT('',(-25.000000372529,-3.,-30.0000004470348));
#696=CARTESIAN_POINT('',(-25.,0.,-30.));
#697=CARTESIAN_POINT('Origin',(-25.000000372529,0.,39.9999995529652));
#698=CARTESIAN_POINT('',(-25.000000372529,-3.,39.9999995529652));
#699=CARTESIAN_POINT('',(-25.000000372529,-3.,39.9999995529652));
#700=CARTESIAN_POINT('',(-25.000000372529,0.,39.9999995529652));
#701=CARTESIAN_POINT('Origin',(44.999999627471,0.,39.9999995529652));
#702=CARTESIAN_POINT('',(44.999999627471,-3.,39.9999995529652));
#703=CARTESIAN_POINT('Origin',(9.99999962747097,-3.,4.99999955296516));
#704=UNCERTAINTY_MEASURE_WITH_UNIT(LENGTH_MEASURE(0.01),#708,
'DISTANCE_ACCURACY_VALUE',
'Maximum model space distance between geometric entities at asserted c
onnectivities');
#705=UNCERTAINTY_MEASURE_WITH_UNIT(LENGTH_MEASURE(0.01),#708,
'DISTANCE_ACCURACY_VALUE',
'Maximum model space distance between geometric entities at asserted c
onnectivities');
#706=(
GEOMETRIC_REPRESENTATION_CONTEXT(3)
GLOBAL_UNCERTAINTY_ASSIGNED_CONTEXT((#704))
GLOBAL_UNIT_ASSIGNED_CONTEXT((#708,#710,#711))
REPRESENTATION_CONTEXT('','3D')
);
#707=(
GEOMETRIC_REPRESENTATION_CONTEXT(3)
GLOBAL_UNCERTAINTY_ASSIGNED_CONTEXT((#705))
GLOBAL_UNIT_ASSIGNED_CONTEXT((#708,#710,#711))
REPRESENTATION_CONTEXT('','3D')
);
#708=(
LENGTH_UNIT()
NAMED_UNIT(*)
SI_UNIT(.MILLI.,.METRE.)
);
#709=(
LENGTH_UNIT()
NAMED_UNIT(*)
SI_UNIT($,.METRE.)
);
#710=(
NAMED_UNIT(*)
PLANE_ANGLE_UNIT()
SI_UNIT($,.RADIAN.)
);
#711=(
NAMED_UNIT(*)
SI_UNIT($,.STERADIAN.)
SOLID_ANGLE_UNIT()
);
#712=SHAPE_DEFINITION_REPRESENTATION(#713,#714);
#713=PRODUCT_DEFINITION_SHAPE('',$,#716);
#714=SHAPE_REPRESENTATION('',(#460),#706);
#715=PRODUCT_DEFINITION_CONTEXT('part definition',#720,'design');
#716=PRODUCT_DEFINITION('2026-10-06-11-52-30-977','SelfBalBot',#717,#715);
#717=PRODUCT_DEFINITION_FORMATION('',$,#722);
#718=PRODUCT_RELATED_PRODUCT_CATEGORY('SelfBalBot','SelfBalBot',(#722));
#719=APPLICATION_PROTOCOL_DEFINITION('international standard',
'automotive_design',2009,#720);
#720=APPLICATION_CONTEXT(
'Core Data for Automotive Mechanical Design Process');
#721=PRODUCT_CONTEXT('part definition',#720,'mechanical');
#722=PRODUCT('2026-10-06-11-52-30-977','SelfBalBot',$,(#721));
#723=PRESENTATION_STYLE_ASSIGNMENT((#724));
#724=SURFACE_STYLE_USAGE(.BOTH.,#725);
#725=SURFACE_SIDE_STYLE('',(#726));
#726=SURFACE_STYLE_FILL_AREA(#727);
#727=FILL_AREA_STYLE('Steel - Satin',(#728));
#728=FILL_AREA_STYLE_COLOUR('Steel - Satin',#729);
#729=COLOUR_RGB('Steel - Satin',0.627450980392157,0.627450980392157,0.627450980392157);
ENDSEC;
END-ISO-10303-21;
